<svg xmlns="http://www.w3.org/2000/svg" xmlns:xlink="http://www.w3.org/1999/xlink" version="1.1" x="0px" y="0px"
  viewBox="0 0 52 65" enableBackground="new 0 0 52 52" xml:space="preserve">
  <g>
    <path fill="none" stroke="#000000" strokeWidth="2" strokeMiterlimit="10"
      d="M10,37.5H4c-0.5522847,0-1-0.4477158-1-1v-12   c0-0.5522842,0.4477153-1,1-1h6c0.5522852,0,1,0.4477158,1,1v12C11,37.0522842,10.5522852,37.5,10,37.5z" />
    <path fill="none" stroke="#000000" strokeWidth="2" strokeMiterlimit="10"
      d="M48,37.5h-6c-0.5522842,0-1-0.4477158-1-1v-12   c0-0.5522842,0.4477158-1,1-1h6c0.5522842,0,1,0.4477158,1,1v12C49,37.0522842,48.5522842,37.5,48,37.5z" />
    <rect x="14" y="14.5" fill="none" stroke="#000000" strokeWidth="2" strokeMiterlimit="10" width="24" height="6" />
    <path fill="none" stroke="#000000" strokeWidth="2" strokeMiterlimit="10"
      d="M26.0000591,20.4999084   c-2.2092285,0-4,1.7910156-4,4v6h8v-6C30.0000591,22.2909241,28.2091656,20.4999084,26.0000591,20.4999084z" />
    <line fill="none" stroke="#000000" strokeWidth="2" strokeMiterlimit="10" x1="11" y1="34.5" x2="40.9999084"
      y2="34.5" />
    <polyline fill="none" stroke="#000000" strokeWidth="2" strokeMiterlimit="10"
      points="11,29.5 19.35186,29.5 22,34.5  " />
    <polyline fill="none" stroke="#000000" strokeWidth="2" strokeMiterlimit="10"
      points="41,29.5 32.64814,29.5 30,34.5  " />
  </g><text x="0" y="67" fill="#000000" font-size="5px" font-weight="bold"
    font-family="'Helvetica Neue', Helvetica, Arial-Unicode, Arial, Sans-serif">Created by DinosoftLabs</text><text
    x="0" y="72" fill="#000000" font-size="5px" font-weight="bold"
    font-family="'Helvetica Neue', Helvetica, Arial-Unicode, Arial, Sans-serif">from the Noun Project</text>
</svg>